/* XPM */
static char * background3_xpm[] = {
"32 32 15 1",
" 	c #000000",
".	c #010101",
"+	c #B1B1B1",
"@	c #E1E1E1",
"#	c #F8F8F8",
"$	c #7C7C7C",
"%	c #898989",
"&	c #3E3E3E",
"*	c #AAAAAA",
"=	c #DADADA",
"-	c #C3C3C3",
";	c #585858",
">	c #040404",
",	c #080808",
"'	c #BCBCBC",
"                                ",
"                                ",
"  .                             ",
"                                ",
"        +++                     ",
"        @#@                     ",
"        @#@                     ",
"        +++                     ",
"                 $%%&           ",
"                 *=-;           ",
"                 *=-;           ",
"                 $%%&           ",
"                                ",
"                                ",
"                                ",
"                                ",
"                                ",
"                                ",
"                                ",
"                                ",
"                                ",
"                                ",
"                       &;;&     ",
"                       %--%     ",
"      >                %==%     ",
"      ,                $**$     ",
"                                ",
"           %%%                  ",
"           '@'                  ",
"           '@'                  ",
"           %%%                  ",
"                                "};
