/* XPM */
static char * collectible_xpm[] = {
"32 32 13 1",
" 	c #1C1A2E",
".	c #000000",
"+	c #595959",
"@	c #5C6363",
"#	c #4B4949",
"$	c #6D7171",
"%	c #7F8181",
"&	c #727979",
"*	c #595757",
"=	c #63A425",
"-	c #86CF41",
";	c #549615",
">	c #7BC734",
"                                ",
"                                ",
"       ..................       ",
"     ..++++++++++++++++++..     ",
"    .++@###@$$%##@$$$%##@++.    ",
"   .+@@$$######@%######@$@%+.   ",
"   .+@$$%%#%&&@#*%&&@#@$$$%+.   ",
"  .+@#%%%#%*==#@%*=-#@#$%%#@+.  ",
"  .+@@##%#%-;;;#*=;;;@#%##@%+.  ",
"  .+$$@@##%*=;>@$*=>#@##@@$%+.  ",
"  .+$$$$%#%*=;#@%*=;#@#@$$$%+.  ",
"  .+%$$$%#%=;;;#*=;;>@#@$$$%+.  ",
"  .+#%%$%#%*-;#@$*-;#@#@$%%#+.  ",
"  .+@##%%#%*=;#@%*=;#@#@%##@+.  ",
"  .+$@@###%=;;;#*=;;;@###@@%+.  ",
"  .+$$$$%#%*=>#@$*=;#@#@@$$%+.  ",
"  .+$$$%%#%*=;#@%*=>#@#@$$$%+.  ",
"  .+$%%###%-;;;#*=;;;@###%%%+.  ",
"  .+%##@@#%*=;#@$*-;#@#@@##%+.  ",
"  .+#@@$%#%*=;#@%*=;#@#@$@@#+.  ",
"  .+@$$$%#%=;;>#*=;;;@#@$$$%+.  ",
"  .+$$$$%#%*-;#@$*=;#@#@$$$%+.  ",
"  .+$$%%##%*=;#@%*=>#@##$$$%+.  ",
"  .+$%##@#%=;;;#*-;;;@#@##$%+.  ",
"  .+%#@@$#%+=>#@%*=;#@#@@@#%+.  ",
"   .+@$$$%#%&&@##%&&@#@$$$%+.   ",
"   .+$$$%######@%######$$%%+.   ",
"    .++%###@$%%##$$%%###%++.    ",
"     ..++++++++++++++++++..     ",
"       ..................       ",
"                                ",
"                                "};
