/* XPM */
static char * coll_xpm[] = {
"32 32 77 1",
" 	c #000000",
".	c #332A01",
"+	c #8F790A",
"@	c #9A820C",
"#	c #836E08",
"$	c #736106",
"%	c #9E860C",
"&	c #675705",
"*	c #7B6807",
"=	c #7A6707",
"-	c #FED91B",
";	c #FFDA1B",
">	c #FDD81B",
",	c #FBD71B",
"'	c #FED81B",
")	c #FAD61B",
"!	c #FDD81C",
"~	c #FBD61D",
"{	c #FED91C",
"]	c #312C2C",
"^	c #FFD91B",
"/	c #A68D0E",
"(	c #5F5858",
"_	c #635B5B",
":	c #625A5A",
"<	c #605858",
"[	c #3F3A3A",
"}	c #383333",
"|	c #3C3737",
"1	c #4B4545",
"2	c #4A4444",
"3	c #322E2E",
"4	c #554E4E",
"5	c #3D3838",
"6	c #443E3E",
"7	c #524B4B",
"8	c #464040",
"9	c #433E3E",
"0	c #474141",
"a	c #433D3D",
"b	c #161313",
"c	c #484242",
"d	c #4D4747",
"e	c #504949",
"f	c #312D2D",
"g	c #4F4949",
"h	c #494343",
"i	c #292525",
"j	c #4E4747",
"k	c #4A4343",
"l	c #332F2F",
"m	c #4D4646",
"n	c #454040",
"o	c #4C4646",
"p	c #453F3F",
"q	c #4E4848",
"r	c #211E1E",
"s	c #4B4444",
"t	c #332E2E",
"u	c #322D2D",
"v	c #060505",
"w	c #342F2F",
"x	c #413C3C",
"y	c #464141",
"z	c #272323",
"A	c #423C3C",
"B	c #4F4848",
"C	c #3B3535",
"D	c #221E1E",
"E	c #423D3D",
"F	c #534C4C",
"G	c #443F3F",
"H	c #544D4D",
"I	c #302C2C",
"J	c #3F3939",
"K	c #403B3B",
"L	c #393434",
"                                ",
"                                ",
"                                ",
"                                ",
"                                ",
"                                ",
"                                ",
"                                ",
"                                ",
"              ..                ",
"         +@#$%&&$$%$*&          ",
"        =-;>--;;;,'-;)+         ",
"        %;!~!{!]]-^;;;/         ",
"        ](_____]]___:<[         ",
"       }|1112]13]1]4441[        ",
"       567717]8199]4401a        ",
"      bcd94de]]ff]]4ddgh        ",
"      ijek14elf]]]]d71gc        ",
"       hm1n00]]]]]fccc6e        ",
"       [o99g2]]]]]]d7p9qr       ",
"       c1s908]t3]]]47201r       ",
"       [p9491]]]ufu4d4k[v       ",
"       5809c0]]t]]wc99xyz       ",
"       }AB09nu]]f]]099CBi       ",
"        DE9F9G9sy9sH74ur        ",
"         DIJAp88888KLID         ",
"                                ",
"                                ",
"                                ",
"                                ",
"                                ",
"                                "};
