/* XPM */
static char * end_off_xpm[] = {
"32 32 4 1",
" 	c #000000",
".	c #323232",
"+	c #575656",
"@	c #7E7E7E",
"                                ",
"                                ",
"                                ",
"                                ",
"                                ",
"             ....               ",
"           ..++++..             ",
"          .++@@@@+..            ",
"         .+@@    @@+.           ",
"         .+@      @+.           ",
"        .+@        @+.          ",
"        .+@        @+.          ",
"        .+@        @+.          ",
"        .+@        @+.          ",
"         .+@      @+.           ",
"         .+@@    @@+.           ",
"          .++@@@@++.            ",
"           ..++++..             ",
"             ....               ",
"                                ",
"                                ",
"                                ",
"                                ",
"                                ",
"                                ",
"                                ",
"                                ",
"                                ",
"                                ",
"                                ",
"                                ",
"                                "};
