/* XPM */
static char * end_on_xpm[] = {
"32 32 19 1",
" 	c #1C1A2E",
".	c #000000",
"+	c #737373",
"@	c #868282",
"#	c #9E9C9C",
"$	c #5E5E5E",
"%	c #5CAEFA",
"&	c #53A3EC",
"*	c #4696DF",
"=	c #3B8AD1",
"-	c #2E80C9",
";	c #2174BF",
">	c #1A6EB9",
",	c #1366B1",
"'	c #0C5DA6",
")	c #0859A1",
"!	c #0A5394",
"~	c #4E4E4E",
"{	c #0C4E89",
"             ......             ",
"          ...+@##@$...          ",
"        ..##@+@@++$@@#..        ",
"       .##@@@+++++$+++@@.       ",
"     ..@#@+++%%%%%%$$$+@+..     ",
"    .#@+@+%%%&&&&&&%%%$+$+@.    ",
"    .@#@+%&&&******&&&%$+@+.    ",
"   .@+@+%&**========**&%$+$+.   ",
"  .##@+%&*====----====*&%$+@@.  ",
"  .#@+%&*=---;;;;;;---=*&%$+@.  ",
" .#@+%&*=--;;>>>>>>;;--=*&%$+@. ",
" .#@+%&*=-;>>,,,,,,>>;-=*&%$+$. ",
" .@@+%&==-;>,,'''',,>;-==&%$++. ",
".+++%&*==;>,,'))))',,>;==*&%$$$.",
".@@+%&*=-;>,'))!!))',>;-=*&%~++.",
".#@+%&*=-;>,')!{{!)',>;-=*&%~+@.",
".#++%&*=-;>,')!{{!)',>;-=*&%~$+.",
".@++%&*=-;>,'))!!))',>;-=*&%~$$.",
".$$$%&*==;>,,'))))',,>;==*&%~~~.",
" .@+$%&==-;>,,'''',,>;-==&%~$$. ",
" .@+$%&*=-;>>,,,,,,>>;-=*&%~$+. ",
" .#+$%&*=--;;>>>>>>;;--=*&%~$+. ",
"  .@+$%&*=---;;;;;;---=*&%~$+.  ",
"  .@@+$%&*====----====*&%~$++.  ",
"   .+$+$%&**========**&%~$~$.   ",
"    .+@+$%&&&******&&&%~$+$.    ",
"    .@+$+$%%%&&&&&&%%%~$~$+.    ",
"     ..+@+$$$%%%%%%~~~$+$..     ",
"       .@@+++$~~~~~$$$++.       ",
"        ..@$+$++$$~$++..        ",
"          ...$+@+$~...          ",
"             ......             "};
