/* XPM */
static char * end_off_xpm[] = {
"32 32 8 1",
" 	c #1C1A2E",
".	c #000000",
"+	c #737373",
"@	c #868282",
"#	c #9E9C9C",
"$	c #5E5E5E",
"%	c #FAFAFA",
"&	c #4E4E4E",
"             ......             ",
"          ...+@##@$...          ",
"        ..##@+@@++$@@#..        ",
"       .##@@@+++++$+++@@.       ",
"     ..@#@+++......$$$+@+..     ",
"    .#@+@+...      ...$+$+@.    ",
"    .@#@+.            .$+@+.    ",
"   .@+@+.              .$+$+.   ",
"  .##@+.                .$+@@.  ",
"  .#@+.                  .$+@.  ",
" .#@+.                    .$+@. ",
" .#@+.                    .$+$. ",
" .@@+.       %            .$++. ",
".+++.                      .$$$.",
".@@+.                      .&++.",
".#@+.                      .&+@.",
".#++.                      .&$+.",
".@++.                      .&$$.",
".$$$.                      .&&&.",
" .@+$.                    .&$$. ",
" .@+$.                    .&$+. ",
" .#+$.                    .&$+. ",
"  .@+$.                  .&$+.  ",
"  .@@+$.                .&$++.  ",
"   .+$+$.              .&$&$.   ",
"    .+@+$.            .&$+$.    ",
"    .@+$+$...      ...&$&$+.    ",
"     ..+@+$$$......&&&$+$..     ",
"       .@@+++$&&&&&$$$++.       ",
"        ..@$+$++$$&$++..        ",
"          ...$+@+$&...          ",
"             ......             "};
