/* XPM */
static char * end_on_xpm[] = {
"32 32 7 1",
" 	c #000000",
".	c #323232",
"+	c #575656",
"@	c #1D00FF",
"#	c #A195FF",
"$	c #D3CFF1",
"%	c #FFFFFF",
"                                ",
"                                ",
"                                ",
"                                ",
"                                ",
"             ....               ",
"           ..++++..             ",
"          .++@@@@+..            ",
"         .+@@####@@+.           ",
"         .+@######@+.           ",
"        .+@###$$###@+.          ",
"        .+@##$%%$##@+.          ",
"        .+@##$%%$##@+.          ",
"        .+@###$$###@+.          ",
"         .+@######@+.           ",
"         .+@@####@@+.           ",
"          .++@@@@++.            ",
"           ..++++..             ",
"             ....               ",
"                                ",
"                                ",
"                                ",
"                                ",
"                                ",
"                                ",
"                                ",
"                                ",
"                                ",
"                                ",
"                                ",
"                                ",
"                                "};
