/* XPM */
static char * ennemy_left_xpm[] = {
"32 32 12 1",
" 	c #1C1A2E",
".	c #000000",
"+	c #393636",
"@	c #D3CFCF",
"#	c #5B595C",
"$	c #706C72",
"%	c #7E7B80",
"&	c #302F2F",
"*	c #908E91",
"=	c #BBB6BD",
"-	c #464444",
";	c #639BFF",
"                   .........    ",
"                  .+@@+@@@@@..  ",
"  .........      .++@+@@@@@@+@. ",
" .+++++++++.     .@@@@@@@@@@+@. ",
".#######...      .++@+@@@@@@+@. ",
" ....####.        .+@@+@@@@@..  ",
"    .++##.         ..##++#..    ",
"    .####.          .##++##.    ",
"    .##+##.         .######.    ",
"   .######.  ........######.    ",
"   .######...+$$$$.@@%%++++#..  ",
"   .######$$$+$$$@@%%%++++++++. ",
"   .###$$@$$$+$@@%%%%+++&&&+++. ",
"  ..#$$$$$+++**%%%%%%++&&&&+%.. ",
" .@@@@@@@===--**++%%++++++++%%..",
".@;;;;@;;@=----*++*************.",
".@;;;;@;;@=----*++*************.",
" .@@@@@@@===--**++%%++++++++%%. ",
"  ..#$$$$$+++**%%%%%%++&&&&+%.. ",
"   .###$$@$$$+$@@%%%%+++&&&+++. ",
"   .######$$$+$$$@@%%%++++++++. ",
"   .######...+$$$$.@@%%++++#..  ",
"   .###+##.  ........######.    ",
"    .#####.         .######.    ",
"    .++##.          .##++##.    ",
"    .####.         ..##++#..    ",
" ....####.        .+@@+@@@@@..  ",
".#######...      .++@+@@@@@@+@. ",
" .+++++++++.     .@@@@@@@@@@+@. ",
"  .........      .++@+@@@@@@+@. ",
"                  .+@@+@@@@@..  ",
"                   .........    "};
