/* XPM */
static char * ennemy_up_xpm[] = {
"32 32 12 1",
" 	c #1C1A2E",
".	c #000000",
"+	c #5B595C",
"@	c #D3CFCF",
"#	c #393636",
"$	c #639BFF",
"%	c #706C72",
"&	c #BBB6BD",
"*	c #464444",
"=	c #908E91",
"-	c #7E7B80",
";	c #302F2F",
"    .          ..          .    ",
"   .+.        .@@.        .+.   ",
"  .#+.       .@$$@.       .+#.  ",
"  .#+.   .....@$$@.....   .+#.  ",
"  .#+....+++++@$$@+++++....+#.  ",
"  .#+++#+++++%@$$@%++++++#++#.  ",
"  .#+++#+++++%@@@@%++++++#++#.  ",
"  .#+++++#++%%@$$@%%+++#++++#.  ",
"  .#.+++++++%%@$$@%%+++++++.#.  ",
"  .#....++++@%&@@&%@++++....#.  ",
"  .#.   ...%%#&&&&#%%...   .#.  ",
"   .      .%%#&**&#%%.      .   ",
"          .%%#****#%%.          ",
"         .###=****=###.         ",
"         .%%%==**==%%%.         ",
"         .%%@-====-@%%.         ",
"         .%%@-####-@%%.         ",
"  ...    .%@--####--@%.    ...  ",
" .#@#.   ..@---==---@..   .#@#. ",
".##@##.  .@----==----@.  .##@##.",
".@@@@@....@---#==#---@....@@@@@.",
".@#@#@++++--###==###--++++@#@#@.",
".#@@@#++++-####==####-++++#@@@#.",
".@@@@@##++###;#==#;###++##@@@@@.",
".@@@@@##++##;;#==#;;##++##@@@@@.",
".@@@@@++++##;;#==#;;##++++@@@@@.",
".@@@@@.+++##;;#==#;;##+++.@@@@@.",
".@@@@@....+####==####+....@@@@@.",
" .###.    .##--==--##.    .###. ",
" .@@@.    .##.-==-.##.    .@@@. ",
"  ...      ....==....      ...  ",
"               ...              "};
