/* XPM */
static char * player_down_xpm[] = {
"32 32 14 1",
" 	c #000000",
".	c #020202",
"+	c #1C00CF",
"@	c #010101",
"#	c #B2A6FF",
"$	c #FCFCFC",
"%	c #231A1A",
"&	c #575656",
"*	c #FFFFFF",
"=	c #625353",
"-	c #3F3F3F",
";	c #595757",
">	c #363232",
",	c #040404",
"                                ",
"                                ",
"                                ",
"                                ",
"                                ",
"                                ",
"                            .   ",
"    .                           ",
"                                ",
"               +++       @      ",
"              ++#++             ",
"              +#$#+             ",
"              %%%%%             ",
"        &&&***********&&&       ",
"         &****=*-*=****&        ",
"          ****=*-*=****         ",
"           ***=*;*=***          ",
"            ;*=***=*;    @      ",
"             >*****>     @      ",
"              >***>   @  @      ",
"              >***>             ",
"               * *              ",
"               * *              ",
"            ,  ***              ",
"               &*&              ",
"                &               ",
"                                ",
"                                ",
"                                ",
"                             @  ",
"                                ",
"                                "};
