/* XPM */
static char * player_right_xpm[] = {
"32 32 14 1",
" 	c #000000",
".	c #010101",
"+	c #020202",
"@	c #575656",
"#	c #FFFFFF",
"$	c #595757",
"%	c #363232",
"&	c #1C00CF",
"*	c #231A1A",
"=	c #625353",
"-	c #B2A6FF",
";	c #FCFCFC",
">	c #3F3F3F",
",	c #040404",
"                                ",
"                                ",
"                             .  ",
"      +                         ",
"                                ",
"                                ",
"         .       ...            ",
"             @                  ",
"             @@                 ",
"             @##   .            ",
"             ####               ",
"             ####$              ",
"             #####%             ",
"          &&*#====#%%           ",
"         &&-*###########@       ",
"         &-;*#>>$####  ##@      ",
"         &&-*###########@       ",
"          &&*#====#%%           ",
"             #####%             ",
"             ####$     ,        ",
"             ####               ",
"             @##                ",
"             @@                 ",
"             @                  ",
"                                ",
"                                ",
"                                ",
"       +                        ",
"                                ",
"                                ",
"                                ",
"                                "};
