/* XPM */
static char * player_left_xpm[] = {
"32 32 14 1",
" 	c #000000",
".	c #020202",
"+	c #575656",
"@	c #FFFFFF",
"#	c #040404",
"$	c #595757",
"%	c #363232",
"&	c #625353",
"*	c #231A1A",
"=	c #1C00CF",
"-	c #B2A6FF",
";	c #3F3F3F",
">	c #FCFCFC",
",	c #010101",
"                                ",
"                                ",
"                                ",
"                                ",
"                        .       ",
"                                ",
"                                ",
"                                ",
"                  +             ",
"                 ++             ",
"                @@+             ",
"               @@@@             ",
"        #     $@@@@             ",
"             %@@@@@             ",
"           %%@&&&&@*==          ",
"       +@@@@@@@@@@@*-==         ",
"      +@@  @@@@$;;@*>-=         ",
"       +@@@@@@@@@@@*-==         ",
"           %%@&&&&@*==          ",
"             %@@@@@             ",
"              $@@@@             ",
"               @@@@             ",
"            ,   @@+             ",
"                 ++             ",
"                  +             ",
"            ,,,       ,         ",
"                                ",
"                                ",
"                         .      ",
"  ,                             ",
"                                ",
"                                "};
