/* XPM */
static char * player_left_xpm[] = {
"32 32 58 1",
" 	c #1C1A2E",
".	c #000000",
"+	c #E9E7F4",
"@	c #9D2E2D",
"#	c #393B3A",
"$	c #7E2E2C",
"%	c #571515",
"&	c #4F1212",
"*	c #431316",
"=	c #962F34",
"-	c #BD4B4B",
";	c #742C29",
">	c #494B4B",
",	c #AA3C3D",
"'	c #9F3434",
")	c #76292A",
"!	c #651C1C",
"~	c #6C1D1A",
"{	c #686868",
"]	c #7E2727",
"^	c #722929",
"/	c #1E1A17",
"(	c #F1F6F5",
"_	c #949B9B",
":	c #585B5B",
"<	c #B34548",
"[	c #B54849",
"}	c #30110E",
"|	c #B74645",
"1	c #8E9595",
"2	c #D7B9BA",
"3	c #D15F5F",
"4	c #B24545",
"5	c #3B3F3E",
"6	c #B54343",
"7	c #C45457",
"8	c #1F2324",
"9	c #0A0E0F",
"0	c #555555",
"a	c #F6FDFA",
"b	c #545454",
"c	c #B33935",
"d	c #4F4F4F",
"e	c #2D120E",
"f	c #BA4647",
"g	c #4A4D4C",
"h	c #0C0E10",
"i	c #0D1413",
"j	c #20302D",
"k	c #C5514F",
"l	c #7C2523",
"m	c #8D302D",
"n	c #151718",
"o	c #19211E",
"p	c #25191B",
"q	c #695D5D",
"r	c #BD4849",
"s	c #B55853",
"                                ",
"                                ",
"                                ",
"                                ",
"                    ....        ",
"        +          .@###..      ",
"                  .$@%&*=-.     ",
"              ....;>@,'---.     ",
"           ...)!!>>>~',,,,.     ",
"        ...,,{))>]^>>>>/)!,.    ",
"     ...,,,)!((((((/_#:{##>/.   ",
"    .,,-/--<(/))[}|(/11#::>/.   ",
" ...--!!)!----23455)(677777>.   ",
".>>:8890abbccd5e5//5&ff:{{77,.  ",
" ..ghhhij{cc--773)k,l/##,,-m.   ",
"  .ghnhopqc-(733--,r((&:{:,s.   ",
"  .ghnhopqc-(733--,r((&:{:,s.   ",
" ..ghhhij{cc--773)k,l/##,,-m.   ",
".>>:8890abbccd5e5//5&ff:{{77,.  ",
" ...--!!)!----23455)(677777>.   ",
"    .,,-/--<(/))[}|(/11#::>/.   ",
"     ...,,,)!((((((/_#:{##>/.   ",
"        ...,,{))>]^>>>>/)!,.    ",
"           ...)!!>>>~',,,,.     ",
"              ....;>@,'---.     ",
"                  .$@%&*=-.     ",
"     +             .@###..      ",
"                    ....        ",
"                                ",
"                                ",
"                                ",
"                                "};
