/* XPM */
static char * player_down_xpm[] = {
"32 32 59 1",
" 	c #1C1A2E",
".	c #000000",
"+	c #AA3C3D",
"@	c #1E1A17",
"#	c #494B4B",
"$	c #C45457",
"%	c #8D302D",
"&	c #B55853",
"*	c #BD4B4B",
"=	c #651C1C",
"-	c #393B3A",
";	c #585B5B",
">	c #686868",
",	c #962F34",
"'	c #76292A",
")	c #431316",
"!	c #4F1212",
"~	c #9F3434",
"{	c #8E9595",
"]	c #BA4647",
"^	c #571515",
"/	c #B54343",
"(	c #F1F6F5",
"_	c #9D2E2D",
":	c #6C1D1A",
"<	c #949B9B",
"[	c #7C2523",
"}	c #7E2E2C",
"|	c #3B3F3E",
"1	c #BD4849",
"2	c #742C29",
"3	c #722929",
"4	c #B74645",
"5	c #C5514F",
"6	c #7E2727",
"7	c #30110E",
"8	c #B54849",
"9	c #B24545",
"0	c #D15F5F",
"a	c #2D120E",
"b	c #D7B9BA",
"c	c #4F4F4F",
"d	c #B33935",
"e	c #B34548",
"f	c #545454",
"g	c #FAFAFA",
"h	c #695D5D",
"i	c #F6FDFA",
"j	c #20302D",
"k	c #25191B",
"l	c #555555",
"m	c #0D1413",
"n	c #19211E",
"o	c #0A0E0F",
"p	c #0C0E10",
"q	c #E9E7F4",
"r	c #1F2324",
"s	c #151718",
"t	c #4A4D4C",
"                                ",
"                                ",
"             .    .             ",
"          ...+....+...          ",
"         .@@#$%&&%$#@@.         ",
"      ...+##$$*++*$$##+...      ",
"     .**+=-;$>+;;+>$;-=+**.     ",
"     .,*+'-;$>+>>+>$;-'+*,.     ",
"    .-)*+@>-$;-;;-;$->@+*)-.    ",
"    .-!~+#;{$]-!!-]${;#+~!-.    ",
"    .-^+~#-{/]@((@]/{-#~+^-.    ",
"    .___:#<@(![(([!(@<#:___.    ",
"     .}###@('|+11+|'(@###}.     ",
"      .2#3(4|@5++5@|4(3#2.      ",
"       .#6(7|@'**'@|7(6#.       ",
"       .=#(89|0**0|98(#=.       ",
"       .='('0a$00$a0'('=.       ",
"       .''('b|$00$|b'(''.       ",
"        .>(@*c*$$*c*@(>.        ",
"        .+=(*d*((*d*(=+.        ",
"        .+'e*dd**dd*e'+.        ",
"         .+**fddddf**+.    g    ",
"         .+*=f>hh>f=*+.         ",
"         .+@'ijkkji'@+.         ",
"          .*=lmnnml=*.          ",
"          .+=oppppo=+.          ",
"     q    .+*rpsspr*+.          ",
"           .*rppppr*.           ",
"            .;tttt;.            ",
"            .#....#.            ",
"            .#.  .#.            ",
"             .    .             "};
