/* XPM */
static char * player_up_xpm[] = {
"32 32 58 1",
" 	c #1C1A2E",
".	c #000000",
"+	c #494B4B",
"@	c #585B5B",
"#	c #4A4D4C",
"$	c #BD4B4B",
"%	c #1F2324",
"&	c #0C0E10",
"*	c #E9E7F4",
"=	c #AA3C3D",
"-	c #151718",
";	c #651C1C",
">	c #0A0E0F",
",	c #555555",
"'	c #0D1413",
")	c #19211E",
"!	c #1E1A17",
"~	c #76292A",
"{	c #F6FDFA",
"]	c #20302D",
"^	c #25191B",
"/	c #545454",
"(	c #686868",
"_	c #695D5D",
":	c #B33935",
"<	c #B34548",
"[	c #F1F6F5",
"}	c #4F4F4F",
"|	c #C45457",
"1	c #D7B9BA",
"2	c #3B3F3E",
"3	c #D15F5F",
"4	c #2D120E",
"5	c #B54849",
"6	c #B24545",
"7	c #7E2727",
"8	c #30110E",
"9	c #742C29",
"0	c #722929",
"a	c #B74645",
"b	c #C5514F",
"c	c #7E2E2C",
"d	c #BD4849",
"e	c #9D2E2D",
"f	c #6C1D1A",
"g	c #949B9B",
"h	c #4F1212",
"i	c #7C2523",
"j	c #393B3A",
"k	c #571515",
"l	c #9F3434",
"m	c #8E9595",
"n	c #B54343",
"o	c #BA4647",
"p	c #431316",
"q	c #962F34",
"r	c #8D302D",
"s	c #B55853",
"             .    .             ",
"            .+.  .+.            ",
"            .+....+.            ",
"            .@####@.            ",
"           .$%&&&&%$.           ",
"        * .=$%&--&%$=.   *      ",
"          .=;>&&&&>;=.          ",
"          .$;,'))',;$.          ",
"         .=!~{]^^]{~!=.         ",
"         .=$;/(__(/;$=.         ",
"         .=$$/::::/$$=.         ",
"        .=~<$::$$::$<~=.        ",
"        .=;[$:$[[$:$[;=.        ",
"        .([!$}$||$}$![(.        ",
"       .~~[~12|33|21~[~~.       ",
"       .;~[~34|33|43~[~;.       ",
"       .;+[5623$$3265[+;.       ",
"       .+7[82!~$$~!28[7+.       ",
"      .9+0[a2!b==b!2a[0+9.      ",
"     .c+++![~2=dd=2~[!+++c.     ",
"    .eeef+g![hi[[ih[!g+feee.    ",
"    .jk=l+jmno![[!onmj+l=kj.    ",
"    .jhl=+@m|ojhhjo|m@+=lhj.    ",
"    .jp$=!(j|@j@@j@|j(!=$pj.    ",
"     .q$=~j@|(=((=(|@j~=$q.     ",
"     .$$=;j@|(=@@=(|@j;=$$.     ",
"     *...=++||$==$||++=...      ",
"         .!!+|rssr|+!!.         ",
"          ...=....=...          ",
"             .    .             ",
"                                ",
"                                "};
