/* XPM */
static char * player_right_xpm[] = {
"32 32 59 1",
" 	c #1C1A2E",
".	c #000000",
"+	c #393B3A",
"@	c #9D2E2D",
"#	c #E9E7F4",
"$	c #BD4B4B",
"%	c #962F34",
"&	c #431316",
"*	c #4F1212",
"=	c #571515",
"-	c #7E2E2C",
";	c #9F3434",
">	c #AA3C3D",
",	c #494B4B",
"'	c #742C29",
")	c #6C1D1A",
"!	c #651C1C",
"~	c #76292A",
"{	c #1E1A17",
"]	c #722929",
"^	c #7E2727",
"/	c #686868",
"(	c #585B5B",
"_	c #949B9B",
":	c #F1F6F5",
"<	c #8E9595",
"[	c #B74645",
"}	c #30110E",
"|	c #B54849",
"1	c #B34548",
"2	c #C45457",
"3	c #B54343",
"4	c #3B3F3E",
"5	c #B24545",
"6	c #D15F5F",
"7	c #D7B9BA",
"8	c #BA4647",
"9	c #2D120E",
"0	c #4F4F4F",
"a	c #B33935",
"b	c #545454",
"c	c #F6FDFA",
"d	c #555555",
"e	c #0A0E0F",
"f	c #1F2324",
"g	c #8D302D",
"h	c #7C2523",
"i	c #C5514F",
"j	c #20302D",
"k	c #0D1413",
"l	c #0C0E10",
"m	c #4A4D4C",
"n	c #B55853",
"o	c #BD4849",
"p	c #695D5D",
"q	c #25191B",
"r	c #19211E",
"s	c #151718",
"t	c #FAFAFA",
"                                ",
"                                ",
"                                ",
"                                ",
"        ....                    ",
"      ..+++@.            #      ",
"     .$%&*=@-.                  ",
"     .$$$;>@,'....              ",
"     .>>>>;),,,!!~...           ",
"    .>!~{,,,,]^,~~/>>...        ",
"   .{,++/(+_{::::::!~>>>...     ",
"   .{,((+<<{:[}|~~{:1$${$>>.    ",
"   .,222223:~44567$$$$!~!!$$... ",
"  .>22//(88*4{{4940aabbcdeff(,,.",
"   .g$>>++{h>i~622$$aa/jklllm.. ",
"   .n>(/(*::o>$$662:$apqrlslm.  ",
"   .n>(/(*::o>$$662:$apqrlslm.  ",
"   .g$>>++{h>i~622$$aa/jklllm.. ",
"  .>22//(88*4{{4940aabbcdeff(,,.",
"   .,222223:~44567$$$$!~!!$$... ",
"   .{,((+<<{:[}|~~{:1$${$>>.    ",
"   .{,++/(+_{::::::!~>>>...t    ",
"    .>!~{,,,,]^,~~/>>...        ",
"     .>>>>;),,,!!~...           ",
"     .$$$;>@,'....              ",
"     .$%&*=@-.                  ",
"     #..+++@.                   ",
"        ....                    ",
"                                ",
"                                ",
"                                ",
"                                "};
