/* XPM */
static char * wall_xpm[] = {
"32 32 47 1",
" 	c #000000",
".	c #010101",
"+	c #181818",
"@	c #3A3939",
"#	c #4F4D4D",
"$	c #545252",
"%	c #535252",
"&	c #525050",
"*	c #514F4F",
"=	c #4C4B4B",
"-	c #444242",
";	c #2B2A2A",
">	c #4E4C4C",
",	c #565555",
"'	c #575555",
")	c #575656",
"!	c #555353",
"~	c #4A4949",
"{	c #373636",
"]	c #555454",
"^	c #565454",
"/	c #535151",
"(	c #3E3D3D",
"_	c #414040",
":	c #474646",
"<	c #454444",
"[	c #0F0E0E",
"}	c #484646",
"|	c #515050",
"1	c #4E4D4D",
"2	c #3D3C3C",
"3	c #242323",
"4	c #4F4E4E",
"5	c #363535",
"6	c #313030",
"7	c #494848",
"8	c #504E4E",
"9	c #4C4A4A",
"0	c #525151",
"a	c #504F4F",
"b	c #434141",
"c	c #413F3F",
"d	c #494747",
"e	c #4D4C4C",
"f	c #4B4949",
"g	c #545353",
"h	c #020202",
"                                ",
"                                ",
"  .                             ",
"                                ",
"                                ",
"         +++                    ",
"        @#$%&*&=-+              ",
"      ;@>,')))''!~@             ",
"     {#]^^$/&&],''&(            ",
"     _^'!:-<<//!/')#@           ",
"    [}$]%|1,^))'2>''#           ",
"    34//)','))))2;!)%           ",
"    5%'/^'))')))*6%)/           ",
"    =,,17')))'))'_/'!<;         ",
"    8)^2{!))!$))^_9))^&(        ",
"    &']5_0'^*a!]!/$$'))&b       ",
"    1']c9))'!^''))),')))/{      ",
"    7''18''^!')))))))''''9      ",
"    2$'^^$9d<$)))))))'&^)|      ",
"    +<!')]9b6e'))))))^8''9      ",
"     ;9^'''^0$/'')))'/!^/@      ",
"      ;<*]'^))'^'))))^$,_       ",
"       +3f0!/0$))))))')g_       ",
"         {^'e5&''))],))];       ",
"         {#^'0^']|97^)'#;       ",
"          6:^)')'^//')/;  h     ",
"           ;&^'')))''&<         ",
"            ;_e!,]%&7{          ",
"              +66;+++           ",
"                                ",
"                                ",
"                                "};
