/* XPM */
static char * wall3_2_xpm[] = {
"32 32 8 1",
" 	c #1C1A2E",
".	c #E9E7F4",
"+	c #000000",
"@	c #7D634A",
"#	c #52402C",
"$	c #20150F",
"%	c #32251D",
"&	c #FAFAFA",
"                                ",
"                                ",
"                                ",
"                                ",
"                                ",
"        .                .      ",
"          ++++++++++++          ",
"         +@@@@@@@@@@@@+         ",
"        +@@@#@#@@#@@##@++       ",
"      ++@@###@@####@#####++++   ",
"     +@#@#@####@#############+  ",
"    +@@@@##############$######+ ",
"   +@@#@##$$$########$$$$$####+ ",
"   +@$%##$%%########$%%$%@%##%+ ",
"  +@@$%@##$%@######@%%@###@@##%+",
"  +@##@###%@####$$###@########%+",
"  +#######@#####$%@########%%%$+",
"  +#############%%#@###%%%%%$++ ",
"  +#########$%@#@%####$%%$$$+   ",
"   +#########%@##@##%%%$$+++    ",
"    +########@#####%$++++       ",
"     +++#######%%@#%+      &    ",
"        ++%#####@#%$+           ",
"          +%$%####$$+           ",
"           +++%%$%$+            ",
"             ++$$$+             ",
"     .         +++              ",
"                                ",
"                                ",
"                                ",
"                                ",
"                                "};
