/* XPM */
static char * wall3_xpm[] = {
"32 32 64 1",
" 	c #000000",
".	c #010101",
"+	c #2B2A2A",
"@	c #181818",
"#	c #242323",
"$	c #414040",
"%	c #3E3D3D",
"&	c #373636",
"*	c #403E3E",
"=	c #4F4D4D",
"-	c #454444",
";	c #262525",
">	c #4B4A4A",
",	c #545252",
"'	c #565454",
")	c #555353",
"!	c #565555",
"~	c #575555",
"{	c #514F4F",
"]	c #555454",
"^	c #4C4A4A",
"/	c #313030",
"(	c #494848",
"_	c #575656",
":	c #545353",
"<	c #535151",
"[	c #494747",
"}	c #1D1C1C",
"|	c #4D4C4C",
"1	c #535252",
"2	c #525050",
"3	c #484646",
"4	c #504E4E",
"5	c #474646",
"6	c #595858",
"7	c #585656",
"8	c #525151",
"9	c #4A4949",
"0	c #3A3939",
"a	c #464444",
"b	c #464545",
"c	c #4F4E4E",
"d	c #5A5858",
"e	c #5D5C5C",
"f	c #272626",
"g	c #5F5E5E",
"h	c #646262",
"i	c #585757",
"j	c #434141",
"k	c #515050",
"l	c #5F5D5D",
"m	c #595757",
"n	c #3D3C3C",
"o	c #4E4D4D",
"p	c #444242",
"q	c #3B3A3A",
"r	c #424040",
"s	c #0F0E0E",
"t	c #333232",
"u	c #4C4B4B",
"v	c #4E4C4C",
"w	c #504F4F",
"x	c #343333",
"y	c #4B4949",
"                                ",
"                                ",
"  .                             ",
"               +++              ",
"       +++@#$%&*=-;             ",
"    +$>,'')'!~,{]'{^+ @//+      ",
"    ()~~______~~~~_~:<<,)^+     ",
"   %{~'')!~~'!~~!______~~![+}   ",
"   (_,|1'23<_45[267__'<:~~890+  ",
"   (!<a)_~<~~<#bcde7_4f['!,11-  ",
"   &^_2'___)~)<'_ghi_,/j))k]!5  ",
"    *9!~!_k)~~__!dlm_)/3]',~kn  ",
"    @5!_]5{!___')))!'90c~~~o$@  ",
"    @p'~'4]__~'<_k!_{q-)~~2r@   ",
"    sp)~~_],'~~~'4<!'^{~~~,t    ",
"    &u~~~':v2~__~^9~'2_'__)n    ",
"   +^!!'!~_,~~___4b<)~,!_~'a    ",
"   a!~,5~__'__~~~opc~,]_:')%    ",
"   c__w0]_~!_~~]99o_)<~~kbbx    ",
"   c__c0,)'_)w1<vk'1''~'j       ",
"   3!!|n)]'~c+$:~'$31~_^+       ",
"   /{!|n<~!,v&(~~8++^<=%        ",
"   @5),p{_~~c(',^n  @@@         ",
"    /2!|y!__2,)5@               ",
"    @(!,o=2|<!</        .       ",
"     &u_,-+0<_=@                ",
"      %^),|4!)-                 ",
"       +-1!])^+                 ",
"        +-{1-+                  ",
"         @//+                   ",
"                                ",
"                                "};
