/* XPM */
static char * wall1_xpm[] = {
"32 32 8 1",
" 	c #1C1A2E",
".	c #E9E7F4",
"+	c #000000",
"@	c #7D634A",
"#	c #52402C",
"$	c #32251D",
"%	c #20150F",
"&	c #FAFAFA",
"                                ",
"                                ",
"                                ",
"                                ",
"                                ",
"        .                .      ",
"         +++      ++++          ",
"       ++@@@++++++@@@#+++++     ",
"      +@@@#@######@$####$##+    ",
"     +@@@#############$$##$+    ",
"     +@@@%############$##$%+    ",
"     +@@%$#####%$$#######$+     ",
"     +@@%$####%%$$@@####$$+     ",
"     +@#######%$$@@#####$+      ",
"     +@######%$$$@#####$+       ",
"     +@####%#$$@@####%$%+       ",
"     +####$$##@######%$%+       ",
"     +####$$######$@@%$%+       ",
"      +#########%%$@$%%%+       ",
"      +##$#####%$$#%$$%%+       ",
"       +#####%%$$%%%$%%%+       ",
"        +###$$$$%%%%%%%%+  &    ",
"         +#$$$$%%%%%$%%%+       ",
"          ++$$%$%%%+++++        ",
"            +++++++             ",
"                                ",
"     .                          ",
"                                ",
"                                ",
"                                ",
"                                ",
"                                "};
