/* XPM */
static char * wall3_3_xpm[] = {
"32 32 7 1",
" 	c #1C1A2E",
".	c #000000",
"+	c #7D634A",
"@	c #E9E7F4",
"#	c #20150F",
"$	c #52402C",
"%	c #32251D",
"                                ",
"                                ",
"                                ",
"                                ",
"         ......                 ",
"      ...++++++....      @      ",
"     .++++#++$+++++..           ",
"    .+++$#%$$++$+$++$.          ",
"    .+$++$$$+$$$$+$$+$.         ",
"    .++$$$+$$##$$$$$$$.         ",
"    .+$++$$$$#%%+$$$$$$.        ",
"    .++$$$$$#%%+$$$$$$$$..      ",
"    .+$+$$$$$+$$$$$$$$$$$$.     ",
"     .+$$$$$$$$$$$$$$$$$$$.     ",
"     .$$$$$$$$$$$$$$$$$$$$.     ",
"      .$$$$#%+$$#$$$$$$$$%.     ",
"      .$$$$%+$$#%%$$$$$$$$%.    ",
"      .$$$$+$$$#%%+$###$$$$.    ",
"      .$$$$$$$+%$$$$#%%##$$%.   ",
"       .$$$##$$+$$$$+$%#%%$$%.  ",
"       .$$$$%$$$%$$$$$$%#%+$%.  ",
"       .%$$$#%%%#%$$$$$++%+%%.  ",
"       .$$%%##...%$$$$$$$$%%#.  ",
"        ..###..  .%%%$$$$$%##.  ",
"          ....    .%#%%%$$%#.   ",
"                   ..##%%%%%.   ",
"     @               ...%##%.   ",
"                        .%##.   ",
"                         ...    ",
"                                ",
"                                ",
"                                "};
