/* XPM */
static char * wall2_xpm[] = {
"32 32 56 1",
" 	c #000000",
".	c #010101",
"+	c #3A3939",
"@	c #454444",
"#	c #2B2A2A",
"$	c #4F4D4D",
"%	c #565555",
"&	c #565454",
"*	c #0F0E0E",
"=	c #525050",
"-	c #575656",
";	c #575555",
">	c #545353",
",	c #3D3C3C",
"'	c #181818",
")	c #373636",
"!	c #514F4F",
"~	c #4C4B4B",
"{	c #4C4A4A",
"]	c #585656",
"^	c #595757",
"/	c #5A5959",
"(	c #494848",
"_	c #414040",
":	c #525151",
"<	c #3E3D3D",
"[	c #535151",
"}	c #4D4C4C",
"|	c #313030",
"1	c #161616",
"2	c #1F1E1E",
"3	c #363535",
"4	c #4E4C4C",
"5	c #535252",
"6	c #494747",
"7	c #555353",
"8	c #555454",
"9	c #444242",
"0	c #515050",
"a	c #4B4A4A",
"b	c #545252",
"c	c #434141",
"d	c #4D4B4B",
"e	c #504E4E",
"f	c #3B3A3A",
"g	c #474646",
"h	c #4A4848",
"i	c #262525",
"j	c #484646",
"k	c #333232",
"l	c #424141",
"m	c #413F3F",
"n	c #2E2D2D",
"o	c #444343",
"p	c #4A4949",
"q	c #1D1C1C",
"                                ",
"                                ",
"  .                             ",
"                                ",
"                 +@@#           ",
"                 $%&@#          ",
"                *=-;>#          ",
"                ,;--%@'         ",
"               )!----~'         ",
"               {;]]--!'         ",
"               {-^]/-(          ",
"               _~]]-:<          ",
"                ){[}<           ",
"                 '''            ",
"                                ",
"       |))1                     ",
"   123<456'                     ",
"   _$7%;;7}<'                   ",
"  #};;--;-89'                   ",
"  )5%-;;-;0<'                   ",
"  ab&;;&;;c                     ",
"  6%7%&%;;}          #<<#       ",
" *$7;&;-;;9          #{d|'*     ",
" #e;%;;7:{f        ##+<@g_#     ",
" #b;;%!<           <!{<|h(#     ",
" ij&;ek*           <!&~lmfn*    ",
"  k{}o1            #_p!dcgo#    ",
"                     #_g4[}#    ",
"                     *'|p}_i    ",
"                       q##q     ",
"                                ",
"                                "};
